<svg id="Layer_1" data-name="Layer 1" xmlns="http://www.w3.org/2000/svg" viewBox="0 0 24 24"><defs><style>.cls-1,.cls-2{fill:none;}.cls-2{stroke:#000;stroke-linecap:round;stroke-linejoin:round;stroke-width:2px;}</style></defs><rect class="cls-1" width="24" height="24"/><path class="cls-2" d="M3,20V5A2,2,0,0,1,5,3H15.17a2,2,0,0,1,1.42.59l3.82,3.83A2,2,0,0,1,21,8.82V20a2,2,0,0,1-2,2H5A2,2,0,0,1,3,20Z"/><path class="cls-2" d="M21,9H18a2,2,0,0,1-2-2V4"/><line class="cls-2" x1="12" y1="7.99" x2="12" y2="9.99"/><line class="cls-2" x1="12" y1="15.99" x2="12" y2="17.99"/><path class="cls-2" d="M10,16h3.5a1.5,1.5,0,0,0,1.5-1.5h0A1.5,1.5,0,0,0,13.5,13h-3A1.5,1.5,0,0,1,9,11.49H9A1.5,1.5,0,0,1,10.5,10H14"/></svg>