<svg width="277" height="467" viewBox="0 0 277 467" fill="none" xmlns="http://www.w3.org/2000/svg">
<path d="M18.9056 123.951C19.7709 120.909 21.3149 117.353 23.1629 114.816C38.8775 93.2346 75.7042 128.761 63.3776 150.156C60.4522 155.237 54.4576 159.879 47.8175 159.853C29.1362 159.785 15.0296 137.576 18.9056 123.951ZM0.768247 175.527C2.82691 167.096 10.0949 162.163 18.7442 163.807C35.6776 167.019 52.9029 194.776 35.3602 205.559C22.5656 213.417 2.9389 197.057 0.354901 185.895C-0.339766 182.907 0.0962473 178.279 0.768247 175.527ZM77.0669 122.355C62.5362 116.568 52.2189 93.9666 56.6082 79.3653C60.1989 67.42 69.6202 61.8693 83.1162 68.2893C95.7722 74.3119 104.49 92.92 103.567 104.972C102.43 119.764 91.4109 128.065 77.0669 122.355ZM120.27 99.1413C107.098 90.6786 103.004 69.4226 108.552 54.7693C113.235 42.404 130.532 38.8239 142.604 49.6173C151.987 58.0039 158.255 82.5546 149.983 95.4C144.328 104.185 130.798 105.911 120.27 99.1413ZM85.3389 142.519C106.624 122.771 145.269 106.197 178.734 115.848C200.914 122.245 215.718 138.076 226.275 152.844C237.379 168.376 244.485 185.149 245.18 202.335C245.553 211.615 243.638 222.037 236.894 231.173C229.933 240.608 218.266 244.289 208.767 253.631C182.28 279.679 185.297 312.832 199.264 332.491C218.311 359.297 261.349 378.044 273.375 408.838C276.748 417.471 279.151 432.275 268.657 445.828C257.391 460.381 231.652 467.659 215.569 466.558C181.108 464.206 151.793 431.192 137.364 414.799C116.592 391.195 103.248 370.328 90.4975 347.914C71.0109 313.671 51.7376 278.108 48.1936 234.889C46.9842 220.139 48.6082 204.14 54.8922 187.336C60.3722 172.669 74.9202 152.183 85.3389 142.519ZM223.166 110.539C198.832 113.8 180.701 93.3906 173.997 78.6186C168.142 65.7213 165.127 45.5426 172.937 27.1693C178.082 15.0653 188.39 4.05197 199 1.24531C227.34 -6.25203 250.336 21.9586 255.569 36.2426C263.646 58.292 258.614 105.783 223.166 110.539Z" fill="#100F0D"/>
</svg>
