<svg width="277" height="467" viewBox="0 0 277 467" fill="none" xmlns="http://www.w3.org/2000/svg">
<path d="M257.348 123.951C256.483 120.909 254.939 117.353 253.091 114.816C237.376 93.2346 200.549 128.761 212.876 150.156C215.801 155.237 221.796 159.879 228.436 159.853C247.117 159.785 261.224 137.576 257.348 123.951ZM275.485 175.527C273.427 167.096 266.159 162.163 257.509 163.807C240.576 167.019 223.351 194.776 240.893 205.559C253.688 213.417 273.315 197.057 275.899 185.895C276.593 182.907 276.157 178.279 275.485 175.527ZM199.187 122.355C213.717 116.568 224.035 93.9666 219.645 79.3653C216.055 67.42 206.633 61.8693 193.137 68.2893C180.481 74.3119 171.764 92.92 172.687 104.972C173.824 119.764 184.843 128.065 199.187 122.355ZM155.984 99.1413C169.156 90.6786 173.249 69.4226 167.701 54.7693C163.019 42.404 145.721 38.8239 133.649 49.6173C124.266 58.0039 117.998 82.5546 126.27 95.4C131.925 104.185 145.456 105.911 155.984 99.1413ZM190.915 142.519C169.629 122.771 130.985 106.197 97.5192 115.848C75.3395 122.245 60.5359 138.076 49.9785 152.844C38.8744 168.376 31.7687 185.149 31.0739 202.335C30.7004 211.615 32.6155 222.037 39.3592 231.173C46.3207 240.608 57.9873 244.289 67.4868 253.631C93.9739 279.679 90.9567 312.832 76.9889 332.491C57.942 359.297 14.9045 378.044 2.87797 408.838C-0.494422 417.471 -2.89807 432.275 7.59673 445.828C18.8629 460.381 44.6015 467.659 60.6848 466.558C95.1457 464.206 124.461 431.192 138.889 414.799C159.661 391.195 173.005 370.328 185.756 347.914C205.243 313.671 224.516 278.108 228.06 234.889C229.269 220.139 227.645 204.14 221.361 187.336C215.881 172.669 201.333 152.183 190.915 142.519ZM53.0879 110.539C77.4217 113.8 95.552 93.3906 102.256 78.6186C108.112 65.7213 111.127 45.5426 103.316 27.1693C98.1717 15.0653 87.8638 4.05197 77.2534 1.24531C48.9138 -6.25203 25.9176 21.9586 20.6842 36.2426C12.6071 58.292 17.6394 105.783 53.0879 110.539Z" fill="#100F0D"/>
</svg>
